<?xml version="1.0" encoding="UTF-8"?>
<svg version="1.1" xmlns="http://www.w3.org/2000/svg" width="520" height="520">
<path d="M0 0 C171.6 0 343.2 0 520 0 C520 171.6 520 343.2 520 520 C348.4 520 176.8 520 0 520 C0 348.4 0 176.8 0 0 Z " fill="#F1F2F2" transform="translate(0,0)"/>
<path d="M0 0 C0.99100708 0.00182281 1.98201416 0.00364563 3.00305176 0.00552368 C18.20455511 0.05254022 33.0039106 0.62551817 48 3.3125 C49.57515381 3.58586182 49.57515381 3.58586182 51.18212891 3.86474609 C77.30588802 8.4829915 101.58838548 16.78812659 125 29.3125 C126.15628906 29.92609375 127.31257813 30.5396875 128.50390625 31.171875 C140.83540277 37.96191404 152.42571902 46.02036782 163 55.3125 C159.76242359 60.41389211 156.06141568 64.99453259 152.1875 69.625 C147.35438207 75.44366298 142.56959349 81.28269807 138 87.3125 C136.45802548 86.33381821 134.91644929 85.35450884 133.375 84.375 C131.84746094 83.40820312 131.84746094 83.40820312 130.2890625 82.421875 C128.16474268 81.05948462 126.05410053 79.67541604 123.9609375 78.265625 C107.75767665 67.4634511 90.65535587 58.82891268 72.07275391 52.97802734 C69.353029 52.1047682 66.68303208 51.10440052 64 50.125 C15.06393662 34.17800312 -43.98971072 39.93863522 -89.61157227 63.03222656 C-97.75345922 67.28524531 -105.55967 71.91075833 -113 77.3125 C-114.01964844 78.04726562 -115.03929687 78.78203125 -116.08984375 79.5390625 C-159.93245622 111.83921782 -189.56527844 160.79304224 -198.50976562 214.36572266 C-200.12299855 225.14930863 -200.40027858 235.79487489 -200.375 246.6875 C-200.37368576 248.07396225 -200.37368576 248.07396225 -200.37234497 249.48843384 C-200.19833071 305.27114274 -177.18813549 355.18923365 -138.625 395 C-100.41301113 432.38845462 -47.67916902 452.51618946 5.375 452.5625 C6.1761322 452.56350708 6.9772644 452.56451416 7.80267334 452.56555176 C20.12819078 452.55508161 31.91235313 451.86305395 44 449.3125 C45.49710505 449.02970622 46.9945056 448.74847269 48.4921875 448.46875 C75.27811003 443.23501895 101.00431062 431.59150728 122.95703125 415.42578125 C123.59519775 414.95720703 124.23336426 414.48863281 124.89086914 414.00585938 C126.09957189 413.10810196 127.29868 412.19722867 128.48608398 411.27148438 C132.36507918 408.35450799 132.36507918 408.35450799 135.06640625 408.17578125 C138.06714675 409.93985294 140.0401387 412.50908718 142.1875 415.1875 C142.90498413 416.05955078 142.90498413 416.05955078 143.63696289 416.94921875 C145.09964955 418.73034474 146.54983331 420.52117613 148 422.3125 C148.8582285 423.35771329 149.71754068 424.40203804 150.578125 425.4453125 C152.72925746 428.05943704 154.87027442 430.68091829 157 433.3125 C157.74378906 434.199375 158.48757813 435.08625 159.25390625 436 C161 438.3125 161 438.3125 161 440.3125 C158.42966208 442.69579353 155.51628316 444.68476943 152.6875 446.75 C151.82737305 447.37817627 150.96724609 448.00635254 150.08105469 448.65356445 C106.64912453 479.85789415 55.89700638 493.73524428 2.875 493.8125 C1.78005219 493.81517883 0.68510437 493.81785767 -0.44302368 493.82061768 C-19.37295288 493.81062509 -36.64717001 491.92163356 -55 487.3125 C-57.06834844 486.83695528 -59.13733527 486.36417641 -61.20703125 485.89453125 C-93.95864054 478.19546906 -124.85097633 463.52864924 -151 442.3125 C-152.14855469 441.44044922 -152.14855469 441.44044922 -153.3203125 440.55078125 C-167.98204229 429.13974079 -181.14630721 415.37418617 -192 400.3125 C-192.4851709 399.65040527 -192.9703418 398.98831055 -193.47021484 398.30615234 C-204.13334354 383.73174616 -213.35672451 368.68013663 -221 352.3125 C-221.36625488 351.53165039 -221.73250977 350.75080078 -222.10986328 349.94628906 C-237.30072409 317.15270222 -243.22494722 282.97743986 -243.3125 247.0625 C-243.31511841 246.03637604 -243.31773682 245.01025208 -243.32043457 243.95303345 C-243.32462224 228.64456576 -242.54011835 214.25687913 -239 199.3125 C-238.69208868 197.82645142 -238.38855355 196.33948797 -238.08984375 194.8515625 C-226.82737378 140.70388289 -194.41375972 87.66044519 -151 53.3125 C-150.2471875 52.68085937 -149.494375 52.04921875 -148.71875 51.3984375 C-117.76259604 25.63698061 -78.79438303 8.19511746 -39 2.3125 C-37.81293457 2.13662354 -36.62586914 1.96074707 -35.40283203 1.77954102 C-23.60541595 0.154816 -11.89455771 -0.04546468 0 0 Z " fill="#48CCF0" transform="translate(254,9.6875)"/>
<path d="M0 0 C2.61932145 0.00315844 5.23750639 -0.02040621 7.85668945 -0.0456543 C18.9044044 -0.08608207 29.42730719 0.93245027 40.28753662 2.94439697 C42.27395875 3.30733831 44.26690566 3.6339739 46.25976562 3.9597168 C72.34082608 8.24211265 96.5434847 20.6208152 118.00708008 35.56567383 C118.90849731 36.18418213 118.90849731 36.18418213 119.828125 36.81518555 C122.97910481 39.05841016 124.75929056 40.80444522 126.31958008 44.31567383 C124.09071137 47.02425249 121.86143063 49.73249174 119.63208008 52.44067383 C119.00624023 53.2012207 118.38040039 53.96176758 117.7355957 54.74536133 C114.27679351 58.94662892 110.80862974 63.13948819 107.31958008 67.31567383 C102.70576811 64.73240458 98.28308907 62.00320204 93.88208008 59.06567383 C77.88921465 48.63667285 60.08914866 40.7062473 41.38549805 36.75366211 C40.04047619 36.46850857 38.69806924 36.17062883 37.35913086 35.8581543 C25.59062627 33.15847507 13.7720405 33.00013971 1.75708008 32.94067383 C0.59325302 32.92889099 0.59325302 32.92889099 -0.59408569 32.91687012 C-42.68908539 32.58566284 -79.38219653 49.88460619 -109.23706055 78.89233398 C-112.27396142 81.88711276 -115.04185856 84.9652094 -117.68041992 88.31567383 C-118.10500488 88.84435059 -118.52958984 89.37302734 -118.96704102 89.91772461 C-134.80471489 109.75096991 -146.35607022 132.39154405 -151.68041992 157.31567383 C-151.9025415 158.3155835 -151.9025415 158.3155835 -152.12915039 159.33569336 C-160.72560577 199.30134546 -152.35860372 241.79181217 -130.95043945 276.35083008 C-107.53354009 312.57905116 -71.6573305 338.14787978 -29.36791992 347.25317383 C11.19075449 355.78331652 53.82073354 349.22943403 88.88208008 326.69067383 C93.84272524 323.42668676 98.63776293 319.9674912 103.31958008 316.31567383 C106.36170508 317.65422525 108.23319133 319.05299514 110.37817383 321.58129883 C111.20478516 322.54616211 111.20478516 322.54616211 112.0480957 323.53051758 C112.61206055 324.20211914 113.17602539 324.8737207 113.75708008 325.56567383 C114.31717773 326.22180664 114.87727539 326.87793945 115.4543457 327.55395508 C116.55850465 328.85008565 117.65806732 330.15014773 118.75268555 331.4543457 C119.77341121 332.66687491 120.80329705 333.87177011 121.84350586 335.06762695 C125.31958008 339.09835479 125.31958008 339.09835479 125.31958008 341.31567383 C123.98120117 342.51733398 123.98120117 342.51733398 122.09301758 343.85473633 C121.39781006 344.34893066 120.70260254 344.843125 119.98632812 345.35229492 C119.23005127 345.87645996 118.47377441 346.400625 117.69458008 346.94067383 C116.923479 347.47901855 116.15237793 348.01736328 115.35791016 348.57202148 C108.55760288 353.26058435 101.60624402 357.42652669 94.31958008 361.31567383 C93.3734082 361.83516602 92.42723633 362.3546582 91.45239258 362.88989258 C78.54991966 369.69853826 64.82575545 374.16510441 50.69458008 377.62817383 C49.7191626 377.87051758 48.74374512 378.11286133 47.73876953 378.36254883 C32.46263285 381.9329061 17.19735839 382.72572117 1.56958008 382.69067383 C0.69217163 382.69046234 -0.18523682 382.69025085 -1.0892334 382.69003296 C-13.49402513 382.66025039 -25.33678819 382.12350695 -37.38696289 378.91870117 C-39.85021194 378.27102977 -42.32420635 377.70528491 -44.80932617 377.14770508 C-61.49927985 373.32292403 -76.59567614 367.36291816 -91.68041992 359.31567383 C-92.29159668 358.9934082 -92.90277344 358.67114258 -93.5324707 358.33911133 C-107.56862461 350.87944325 -119.23170096 341.22674577 -130.68041992 330.31567383 C-131.51057617 329.5499707 -132.34073242 328.78426758 -133.19604492 327.99536133 C-154.99847548 307.24788709 -169.59010834 279.34431712 -179.68041992 251.31567383 C-179.94185791 250.60435303 -180.2032959 249.89303223 -180.47265625 249.16015625 C-182.52011531 243.36084249 -183.71185788 237.55801141 -184.74291992 231.50317383 C-184.9034082 230.5950293 -185.06389648 229.68688477 -185.22924805 228.7512207 C-185.55584385 226.89264139 -185.87590412 225.03290278 -186.18969727 223.17211914 C-186.52053737 221.24633348 -186.87026092 219.32370885 -187.23754883 217.40454102 C-188.61477106 209.95061697 -188.99377845 202.76311047 -188.93041992 195.19067383 C-188.92026855 193.41853516 -188.92026855 193.41853516 -188.90991211 191.6105957 C-188.7980845 182.06623968 -188.24322427 172.7333435 -186.68041992 163.31567383 C-186.55683105 162.56979004 -186.43324219 161.82390625 -186.3059082 161.05541992 C-179.59057898 122.3507042 -161.24063273 86.17363045 -134.13110352 57.83813477 C-133.15807383 56.81696123 -132.19229392 55.78883381 -131.23364258 54.75415039 C-97.37065207 18.22752605 -49.22275536 -0.12347992 0 0 Z " fill="#49CCF0" transform="translate(258.680419921875,62.684326171875)"/>
<path d="M0 0 C0.75055664 0.17039795 1.50111328 0.3407959 2.27441406 0.51635742 C10.95405389 2.60860935 19.1436723 5.80922655 27.3125 9.375 C29.11654297 10.16003906 29.11654297 10.16003906 30.95703125 10.9609375 C40.87268652 15.60713026 49.53654906 21.88028402 58.3125 28.375 C54.92110424 32.93116084 51.50115011 37.45115848 47.9375 41.875 C46.90496094 43.15890625 46.90496094 43.15890625 45.8515625 44.46875 C45.34367188 45.0978125 44.83578125 45.726875 44.3125 46.375 C40.31607439 44.93306622 36.99852803 42.99356014 33.4375 40.6875 C16.59042771 30.15327186 -3.31436411 22.29604106 -23.40234375 22.171875 C-24.13514053 22.16617493 -24.86793732 22.16047485 -25.62294006 22.15460205 C-27.17187071 22.14519287 -28.720821 22.13863438 -30.26977539 22.13476562 C-32.58713034 22.12515702 -34.90355944 22.09413674 -37.22070312 22.0625 C-50.0229855 21.97051544 -62.14521667 23.64093675 -74.25 28.0625 C-74.95342529 28.31668701 -75.65685059 28.57087402 -76.3815918 28.83276367 C-104.38979923 39.38360605 -127.15066287 62.56390609 -139.80859375 89.4140625 C-153.20873277 119.31126156 -153.09372044 152.25170796 -141.578125 182.73046875 C-129.76304663 212.54110027 -106.42917296 234.59119194 -77.50683594 247.59082031 C-63.6348538 253.56999458 -49.53822749 255.90757763 -34.55664062 255.82104492 C-32.3206763 255.81253113 -30.08727728 255.84143714 -27.8515625 255.87304688 C-3.05356998 255.99248804 20.66861297 246.16569141 40.3125 231.375 C44.09383733 232.90820739 46.20693552 235.20723272 48.875 238.25 C49.63941406 239.11367188 50.40382813 239.97734375 51.19140625 240.8671875 C52.98431576 242.98698107 54.67929007 245.13129307 56.3125 247.375 C52.87680987 256.62012981 37.00572768 263.27236189 28.41796875 267.41650391 C-7.13214165 283.60037838 -49.24540369 284.10436107 -85.875 271 C-87.82958363 270.16385762 -89.76674087 269.28616169 -91.6875 268.375 C-92.32187988 268.07835449 -92.95625977 267.78170898 -93.60986328 267.47607422 C-109.30759798 260.08565584 -122.5967272 250.91636061 -134.6875 238.375 C-135.89019531 237.20517578 -135.89019531 237.20517578 -137.1171875 236.01171875 C-157.29148321 215.31620263 -169.47237256 187.69823045 -173.6875 159.375 C-173.873125 158.18648437 -174.05875 156.99796875 -174.25 155.7734375 C-174.97630887 149.74878924 -174.8717839 143.68413043 -174.875 137.625 C-174.88724609 136.42617187 -174.89949219 135.22734375 -174.91210938 133.9921875 C-174.92947407 123.31868585 -173.54910794 113.26978438 -170.4375 103.0625 C-170.22061523 102.34449219 -170.00373047 101.62648438 -169.78027344 100.88671875 C-158.38070012 64.04485449 -135.00327048 31.48360237 -100.5234375 13.109375 C-96.62456831 11.09637686 -92.6759761 9.20323848 -88.6875 7.375 C-87.34945312 6.76011719 -87.34945312 6.76011719 -85.984375 6.1328125 C-60.239248 -4.86427817 -27.15104328 -6.21487252 0 0 Z " fill="#49CCF1" transform="translate(294.6875,115.625)"/>
<path d="M0 0 C8.70661758 -0.56058705 16.30196046 3.89507678 22.78125 9.27734375 C33.0937745 18.97534165 38.70065271 31.67786923 39.1796875 45.7734375 C39.19410631 47.72390895 39.19787347 49.67448598 39.19140625 51.625 C39.20751953 52.58921875 39.22363281 53.5534375 39.24023438 54.546875 C39.25006475 69.21379555 34.19060536 81.44310591 24.14453125 92.0546875 C17.47650622 98.51577382 10.97964997 102.37078356 1.62890625 102.625 C-9.20470503 102.31440335 -17.26533231 99.89746473 -25.12109375 92.25 C-30.69257571 86.29660194 -34.16570909 79.80625821 -37.12109375 72.25 C-37.44207031 71.49460937 -37.76304687 70.73921875 -38.09375 69.9609375 C-43.38122891 55.64785506 -40.54126499 37.7717909 -34.765625 24.0234375 C-29.76702193 14.29425298 -23.25068384 6.73891456 -13.12109375 2.25 C-8.77241206 0.99021478 -4.4774983 0.52773461 0 0 Z " fill="#4ACCF1" transform="translate(384.12109375,217.75)"/>
<path d="M0 0 C4.95 0 9.9 0 15 0 C15 15 15 30 15 45 C15.495 44.13375 15.99 43.2675 16.5 42.375 C19.9508917 37.24726656 24.92954657 33.3557643 30.875 31.5625 C40.03061353 29.82454596 48.14609756 32.38929378 55.90625 37.17578125 C64.95211581 43.90066833 68.72055582 56.44875291 70.63980103 67.13116455 C72.01073887 78.05011596 71.41132821 89.31126194 71.2746582 100.30303955 C71.23319233 103.99750554 71.21535548 107.69208544 71.1953125 111.38671875 C71.15285408 118.59148762 71.08270727 125.79556014 71 133 C65.72 133 60.44 133 55 133 C54.9906543 131.14391113 54.98130859 129.28782227 54.97167969 127.37548828 C54.93600429 121.20864712 54.88211336 115.04216992 54.81609726 108.87558174 C54.77676793 105.14067074 54.74450903 101.40599035 54.72900391 97.67089844 C54.71374025 94.05903889 54.67912664 90.44781401 54.63169098 86.83623886 C54.61697624 85.46576361 54.60896474 84.09519769 54.60811615 82.72464371 C54.59764169 74.28175729 53.8169282 67.57915935 50 60 C49.566875 59.05125 49.13375 58.1025 48.6875 57.125 C45.66386385 53.31745818 42.32454149 51.44953943 37.63671875 50.54296875 C31.70805016 50.1464948 27.66560849 51.54775411 22.9140625 55.08203125 C17.29265764 60.71490836 15.90186386 68.58115294 15.79467773 76.23730469 C15.77473251 77.49830994 15.75478729 78.75931519 15.73423767 80.05853271 C15.71725599 81.42964557 15.70037709 82.8007597 15.68359375 84.171875 C15.66301165 85.57863967 15.64201485 86.98539833 15.62062073 88.39215088 C15.56552965 92.08773927 15.51606345 95.78338226 15.46777344 99.47906494 C15.41746351 103.25301959 15.36182707 107.02689532 15.30664062 110.80078125 C15.19921769 118.20045575 15.09823027 125.60019671 15 133 C10.05 133 5.1 133 0 133 C0 89.11 0 45.22 0 0 Z " fill="#4BCCF1" transform="translate(260,186)"/>
<path d="M0 0 C2.11983207 2.00420487 3.89633936 4.34698669 5.71875 6.625 C2.74875 11.245 -0.22125 15.865 -3.28125 20.625 C-4.415625 19.7175 -5.55 18.81 -6.71875 17.875 C-16.20681053 10.91158862 -24.65797517 9.30231112 -36.28125 10.625 C-45.84837392 13.35307607 -52.63394509 20.40137881 -57.53125 28.8125 C-58.48667593 30.73118322 -59.4035084 32.66955792 -60.28125 34.625 C-60.69632813 35.54410156 -61.11140625 36.46320313 -61.5390625 37.41015625 C-67.43971589 53.06958256 -65.92119941 71.72252825 -59.16210938 86.83349609 C-54.89913577 95.50359042 -47.31137335 102.61817631 -38.46875 106.5625 C-30.41309097 109.12493627 -22.17700774 108.31943311 -14.5390625 104.91796875 C-11.55594596 103.20964423 -9.16093653 101.14173351 -6.75390625 98.69921875 C-6.26792969 98.34472656 -5.78195313 97.99023438 -5.28125 97.625 C-1.4003044 98.91864853 -0.71435705 100.53203342 1.46875 103.9375 C2.10296875 104.90300781 2.7371875 105.86851562 3.390625 106.86328125 C4.71875 109.625 4.71875 109.625 4.60546875 111.796875 C1.36126191 118.48537192 -6.85808913 121.77485145 -13.28125 124.625 C-14.04179687 124.99367188 -14.80234375 125.36234375 -15.5859375 125.7421875 C-25.77601007 129.07980547 -38.7729515 126.92275092 -48.28125 122.625 C-64.22343099 113.65468448 -72.71113745 99.6461053 -78.2578125 82.62890625 C-84.09971492 60.32594233 -81.20378579 36.30614754 -69.71484375 16.453125 C-66.51600849 11.24172658 -62.70456433 6.83533994 -58.28125 2.625 C-57.70890625 2.04492188 -57.1365625 1.46484375 -56.546875 0.8671875 C-40.76725822 -14.08587792 -16.37958293 -12.64388858 0 0 Z " fill="#4ACCF1" transform="translate(242.28125,193.375)"/>
<path d="M0 0 C7.26614354 4.17510264 11.69974637 11.36874925 14.3359375 19.171875 C16.39697831 30.44926812 15.31071238 41.879016 9.359375 51.7421875 C5.71432228 56.97955272 1.88462892 60.39262369 -4.25 62.4375 C-10.85217025 63.18411053 -16.00281344 62.96452608 -21.46875 58.98828125 C-28.04735178 53.26085821 -31.86534937 47.14622373 -33.25 38.4375 C-33.8474991 28.76976866 -34.12227237 20.11623516 -29.25 11.4375 C-28.6725 10.365 -28.095 9.2925 -27.5 8.1875 C-20.5232728 -0.33961102 -10.64676854 -4.80027714 0 0 Z " fill="#F1F2F2" transform="translate(393.25,238.5625)"/>
<path d="M0 0 C0.56818761 14.83600986 0.56818761 14.83600986 -2 20 C-4.3811005 21.74216476 -6.64463205 22.81049401 -9.39453125 23.8671875 C-14.70548512 26.17629788 -17.6000082 29.32494917 -20.1875 34.4375 C-20.67605469 35.36433594 -21.16460937 36.29117188 -21.66796875 37.24609375 C-26.29563974 50.28771201 -25.42820511 64.66292956 -25.625 78.3125 C-25.6632564 80.51759226 -25.70231234 82.7226708 -25.7421875 84.92773438 C-25.83734559 90.28504255 -25.92167561 95.64242035 -26 101 C-30.95 101 -35.9 101 -41 101 C-41 68.33 -41 35.66 -41 2 C-36.05 2 -31.1 2 -26 2 C-26 6.95 -26 11.9 -26 17 C-25.34 17 -24.68 17 -24 17 C-23.814375 16.34 -23.62875 15.68 -23.4375 15 C-19.89270077 7.60215814 -15.06983201 3.42524126 -7.4296875 0.59375 C-4.86550348 -0.03286732 -2.62943898 -0.11228921 0 0 Z " fill="#48CCF1" transform="translate(511,217)"/>
<path d="M0 0 C5.28 0 10.56 0 16 0 C16 33 16 66 16 100 C10.72 100 5.44 100 0 100 C0 67 0 34 0 0 Z " fill="#4DCCF1" transform="translate(437,219)"/>
<path d="M0 0 C5.28 0 10.56 0 16 0 C16 7.26 16 14.52 16 22 C10.72 22 5.44 22 0 22 C0 14.74 0 7.48 0 0 Z " fill="#50CDF1" transform="translate(437,185)"/>
</svg>
