<?xml version="1.0" encoding="UTF-8"?>
<svg version="1.1" xmlns="http://www.w3.org/2000/svg" width="500" height="493">
<path d="M0 0 C3.26366268 0.03685256 6.526188 0.04101449 9.79003906 0.04052734 C26.48669129 0.09521739 42.89925406 1.06718428 59.24316406 4.66162109 C60.24653809 4.87850586 61.24991211 5.09539063 62.28369141 5.31884766 C95.97817149 12.7805643 126.452462 26.03370381 154.36816406 46.41162109 C154.95855469 46.83668945 155.54894531 47.26175781 156.15722656 47.69970703 C162.39025328 52.22015697 162.39025328 52.22015697 164.36816406 54.41162109 C164.36816406 59.48303703 162.29335034 61.24429259 159.05566406 64.78662109 C155.66725293 68.58590244 152.33563179 72.38111354 149.26269531 76.44287109 C148.77518799 77.08691895 148.28768066 77.7309668 147.78540039 78.39453125 C146.85482768 79.63689791 145.93372659 80.88642712 145.02319336 82.14355469 C143.74316406 83.84130859 143.74316406 83.84130859 141.36816406 86.41162109 C136.62987905 86.41162109 134.86153951 84.85169451 131.30566406 82.09912109 C104.06666699 61.89647059 71.8686881 49.19557555 38.36816406 44.41162109 C37.24780762 44.24388184 36.12745117 44.07614258 34.97314453 43.90332031 C24.2200297 42.40829959 13.59435972 41.93462168 2.74316406 41.91162109 C1.85773926 41.90794525 0.97231445 41.90426941 0.06005859 41.90048218 C-19.87402039 41.88728288 -38.75925664 44.75910484 -57.63183594 51.41162109 C-58.94109341 51.84324976 -60.25098197 52.27296932 -61.56152344 52.70068359 C-80.07303624 58.90146969 -100.82932431 67.13097063 -114.95996094 80.94287109 C-117.32452549 83.12767343 -119.73607729 85.07845995 -122.27246094 87.05615234 C-127.93086041 91.54712806 -133.04360165 96.47867984 -138.13183594 101.59912109 C-139.05456299 102.5267627 -139.97729004 103.4544043 -140.92797852 104.41015625 C-147.45469497 111.04967158 -153.36268574 117.71652698 -158.63183594 125.41162109 C-159.24260986 126.28778076 -159.24260986 126.28778076 -159.86572266 127.18164062 C-167.43260487 138.05635583 -175.17817666 149.39369965 -179.64746094 161.93505859 C-180.49828731 164.0756297 -181.45543139 166.01616903 -182.52246094 168.05224609 C-184.9269075 172.80252116 -186.5495153 177.71252972 -188.13183594 182.78662109 C-188.43371826 183.74979248 -188.73560059 184.71296387 -189.04663086 185.70532227 C-195.31883149 206.1215458 -198.04541088 226.28587697 -197.94433594 247.59912109 C-197.94160172 248.80577423 -197.94160172 248.80577423 -197.93881226 250.0368042 C-197.73017779 304.95456168 -175.07818914 355.43488415 -136.63183594 394.41162109 C-124.80649484 406.11451044 -111.14897692 416.29311358 -96.63183594 424.41162109 C-95.81328125 424.87068848 -94.99472656 425.32975586 -94.15136719 425.80273438 C-81.04335386 433.07431595 -68.00959963 439.13785848 -53.63183594 443.41162109 C-52.83293945 443.64961426 -52.03404297 443.88760742 -51.2109375 444.1328125 C-31.48831293 449.88690616 -11.79453413 452.63848967 8.74316406 452.66162109 C9.44826111 452.66296051 10.15335815 452.66429993 10.87982178 452.66567993 C22.60899564 452.66086486 33.86446467 451.74925651 45.36816406 449.41162109 C47.22828125 449.069375 47.22828125 449.069375 49.12597656 448.72021484 C78.12236102 443.0441888 105.50261622 430.03904613 129.23925781 412.64599609 C131.88973112 410.75327358 134.54786967 409.03526721 137.36816406 407.41162109 C143.61742372 414.22227996 149.56981913 421.21473169 155.36816406 428.41162109 C156.14160156 429.35134766 156.91503906 430.29107422 157.71191406 431.25927734 C158.44410156 432.15517578 159.17628906 433.05107422 159.93066406 433.97412109 C160.59195312 434.77978516 161.25324219 435.58544922 161.93457031 436.41552734 C163.36816406 438.41162109 163.36816406 438.41162109 163.36816406 440.41162109 C161.90966797 441.74926758 161.90966797 441.74926758 159.84472656 443.28271484 C158.69858887 444.13579224 158.69858887 444.13579224 157.52929688 445.00610352 C156.69237305 445.61429932 155.85544922 446.22249512 154.99316406 446.84912109 C154.13045898 447.47729736 153.26775391 448.10547363 152.37890625 448.75268555 C132.08606922 463.35367444 110.21169786 474.79562804 86.36816406 482.41162109 C84.85609375 482.94142578 84.85609375 482.94142578 83.31347656 483.48193359 C76.04107994 485.93178604 68.62941081 487.50232526 61.11816406 489.03662109 C60.11914062 489.24295166 59.12011719 489.44928223 58.09082031 489.66186523 C40.94086148 493.04217482 24.12857224 493.85408881 6.68066406 493.84912109 C5.55499023 493.84985626 4.42931641 493.85059143 3.26953125 493.85134888 C-14.90069568 493.8202421 -31.90392101 492.62844253 -49.63183594 488.41162109 C-50.7895752 488.14929688 -51.94731445 487.88697266 -53.14013672 487.61669922 C-68.45578635 484.11093504 -83.17631263 479.57155966 -97.63183594 473.41162109 C-98.36515137 473.10144043 -99.0984668 472.79125977 -99.85400391 472.47167969 C-116.28730096 465.41070156 -132.05668766 456.25246813 -145.86865234 444.85864258 C-147.26173584 443.71535735 -148.66789458 442.58800513 -150.07861328 441.46655273 C-156.81174956 436.068998 -163.0508333 430.34359319 -169.13183594 424.22412109 C-170.04747314 423.30429443 -170.96311035 422.38446777 -171.90649414 421.43676758 C-178.75884884 414.46983112 -184.92484794 407.33054572 -190.63183594 399.41162109 C-191.44803426 398.32324748 -192.26576254 397.23601965 -193.08496094 396.14990234 C-211.7194951 371.14010654 -224.76448216 343.2277233 -233.63183594 313.41162109 C-233.86870117 312.61933105 -234.10556641 311.82704102 -234.34960938 311.01074219 C-239.87643288 292.06849323 -241.15127576 272.76599228 -241.07788086 253.12939453 C-241.06937775 249.67858948 -241.09825927 246.22945159 -241.12988281 242.77880859 C-241.19303998 222.27086586 -238.82010601 202.02269554 -232.63183594 182.41162109 C-232.33680176 181.45594238 -232.04176758 180.50026367 -231.73779297 179.515625 C-220.42008216 143.14000919 -203.33329063 109.78557218 -177.63183594 81.41162109 C-176.94605469 80.63431641 -176.26027344 79.85701172 -175.55371094 79.05615234 C-167.40251859 69.86468545 -158.96318329 61.28229442 -149.27636719 53.70117188 C-148.1054798 52.78302651 -146.9392981 51.85886655 -145.77636719 50.93066406 C-126.43360965 35.50681 -105.57973546 23.63293548 -82.63183594 14.41162109 C-81.560625 13.98107422 -80.48941406 13.55052734 -79.38574219 13.10693359 C-54.20284906 3.55582454 -26.80317822 -0.31166486 0 0 Z " fill="#8E54A6" transform="translate(240.6318359375,-0.41162109375)"/>
<path d="M0 0 C2.66566715 0.00533764 5.33116428 0.00004187 7.99682617 -0.00634766 C20.42550672 -0.01264608 32.74387634 0.11765448 44.93237305 2.81787109 C46.12310425 3.07733521 46.12310425 3.07733521 47.33789062 3.34204102 C84.44300239 11.70350044 84.44300239 11.70350044 92.86987305 20.13037109 C94.47862305 20.65630859 94.47862305 20.65630859 96.11987305 21.19287109 C106.98491699 25.10979817 118.19716246 33.56643087 126.86987305 41.13037109 C127.19987305 42.12037109 127.52987305 43.11037109 127.86987305 44.13037109 C126.30265734 46.47968481 124.72347915 48.58738702 122.93237305 50.75537109 C122.18153442 51.68663818 122.18153442 51.68663818 121.41552734 52.63671875 C117.38447827 57.60107758 113.20813571 62.43162242 108.86987305 67.13037109 C105.66962134 65.68867354 102.87579684 63.80335169 99.99853516 61.80517578 C91.66353648 56.03837488 83.06288148 51.37222472 73.86987305 47.13037109 C73.26256348 46.84677734 72.65525391 46.56318359 72.02954102 46.27099609 C63.54385585 42.34205205 55.00213702 39.16476607 45.86987305 37.13037109 C45.04777344 36.94700195 44.22567383 36.76363281 43.37866211 36.57470703 C-1.07558612 27.14114843 -45.54136082 33.95803087 -83.7512207 58.75927734 C-91.6878291 64.22317959 -98.72003795 70.35987755 -105.50512695 77.19287109 C-106.33439697 78.02705566 -107.16366699 78.86124023 -108.01806641 79.72070312 C-131.40376533 103.55195274 -146.06165141 132.98908952 -151.5871582 165.90771484 C-152.13012695 169.13037109 -152.13012695 169.13037109 -152.65356445 170.82788086 C-153.36492887 174.26480599 -153.29291734 177.69801413 -153.2980957 181.19287109 C-153.3014241 181.98000488 -153.3047525 182.76713867 -153.30818176 183.578125 C-153.31323964 185.24576231 -153.31559044 186.91340972 -153.31542969 188.58105469 C-153.3175954 191.09376499 -153.33570499 193.60602087 -153.35473633 196.11865234 C-153.45701601 224.17586908 -144.41116964 251.22446149 -129.85668945 275.12255859 C-128.13012695 278.13037109 -128.13012695 278.13037109 -126.57543945 281.76318359 C-123.39871233 289.16409921 -117.87123558 294.62519844 -112.13012695 300.13037109 C-111.53200195 300.75298828 -110.93387695 301.37560547 -110.31762695 302.01708984 C-107.62180864 304.62144289 -104.71598954 306.90315383 -101.75512695 309.19287109 C-100.50897882 310.1641555 -99.26288677 311.13551184 -98.0168457 312.10693359 C-97.3779541 312.60354492 -96.7390625 313.10015625 -96.08081055 313.61181641 C-92.90157586 316.08676506 -89.73493799 318.57769469 -86.56762695 321.06787109 C-85.9967334 321.51590088 -85.42583984 321.96393066 -84.83764648 322.42553711 C-81.58810661 324.97695996 -78.35246015 327.54468605 -75.13012695 330.13037109 C-70.44996655 333.87449941 -65.80053664 335.28368988 -60.0637207 336.93115234 C-57.17725867 337.77976177 -54.36174128 338.75393916 -51.5402832 339.79833984 C-12.27240367 354.32041521 31.85296322 354.79106861 70.3112793 337.14599609 C74.23433311 335.26599964 78.06353079 333.23510438 81.86987305 331.13037109 C82.9475293 330.54255859 84.02518555 329.95474609 85.13549805 329.34912109 C92.08533651 325.4286994 98.51397887 320.94733813 104.86987305 316.13037109 C113.82806496 319.85456324 121.26975723 331.50468147 126.86987305 339.13037109 C126.86987305 339.79037109 126.86987305 340.45037109 126.86987305 341.13037109 C124.72007756 342.91424395 122.57165878 344.56470484 120.30737305 346.19287109 C119.62916504 346.68311768 118.95095703 347.17336426 118.25219727 347.6784668 C84.22879374 371.93989771 45.55350642 382.58203279 3.99487305 382.56787109 C3.05099731 382.56860626 2.10712158 382.56934143 1.13464355 382.57009888 C-14.49006085 382.53824204 -28.99659533 381.28204791 -44.13012695 377.13037109 C-45.12334961 376.86804688 -46.11657227 376.60572266 -47.13989258 376.33544922 C-78.02689238 368.05256888 -105.1389331 353.38363295 -128.13012695 331.13037109 C-128.63141113 330.65486816 -129.13269531 330.17936523 -129.64916992 329.68945312 C-137.32017874 322.40771212 -143.98845364 314.73859973 -150.13012695 306.13037109 C-150.53440918 305.57043457 -150.93869141 305.01049805 -151.35522461 304.43359375 C-180.00006655 264.41256012 -193.12773177 213.53345924 -185.57104492 164.67089844 C-180.2295567 133.89375202 -168.76707705 103.39955591 -150.13012695 78.13037109 C-149.40954102 77.12748047 -148.68895508 76.12458984 -147.9465332 75.09130859 C-130.3832241 51.38516725 -108.21634197 32.83123188 -82.13012695 19.13037109 C-81.5062207 18.7994043 -80.88231445 18.4684375 -80.23950195 18.12744141 C-55.12336063 5.00425756 -28.08848736 -0.06684674 0 0 Z " fill="#8E54A6" transform="translate(246.130126953125,52.86962890625)"/>
<path d="M0 0 C0.7606073 -0.00067474 1.5212146 -0.00134949 2.30487061 -0.00204468 C37.34480549 0.04732294 65.70796804 10.32109322 93.8125 31.25 C92.09506011 35.42533291 89.17972009 38.51388706 86.25 41.875 C82.66676322 45.80820931 82.66676322 45.80820931 79.8125 50.25 C76.1684884 48.57762753 73.00059516 46.37289199 69.6875 44.125 C64.17849586 40.49377949 58.53485012 37.53769332 52.5 34.875 C51.40824463 34.39329346 51.40824463 34.39329346 50.29443359 33.90185547 C25.99421031 23.48118945 -3.63781606 21.27895679 -29.1875 28.25 C-29.97640625 28.45496094 -30.7653125 28.65992188 -31.578125 28.87109375 C-60.61967363 37.52977769 -85.06393367 57.45458491 -99.62158203 83.96459961 C-104.47725359 93.14035443 -108.47210041 102.21914034 -111.1875 112.25 C-111.41824219 113.09691406 -111.64898437 113.94382812 -111.88671875 114.81640625 C-119.21673126 144.70830122 -111.96502479 176.90658126 -97.1875 203.25 C-92.32013221 210.92472756 -86.41550461 217.65816007 -80.1875 224.25 C-79.47851562 225.0234375 -78.76953125 225.796875 -78.0390625 226.59375 C-65.37018348 239.9486694 -47.64920086 248.9165892 -30.1875 254.25 C-28.43953125 254.83974609 -28.43953125 254.83974609 -26.65625 255.44140625 C-0.85987714 263.36143371 31.12863116 259.39730478 54.90380859 247.26953125 C62.12778937 243.41082778 69.35215079 239.30314443 75.8125 234.25 C79.78582023 235.83008781 82.09490452 238.42715961 84.9375 241.5625 C86.24074219 242.97982422 86.24074219 242.97982422 87.5703125 244.42578125 C89.63878523 247.03119202 90.79483444 249.11124499 91.8125 252.25 C81.03424116 263.27644243 65.92071466 269.5982615 51.8125 275.25 C50.8328125 275.65089844 49.853125 276.05179687 48.84375 276.46484375 C34.68129371 281.73598268 18.80214129 282.70407134 3.8125 283.25 C2.68714844 283.32605469 1.56179687 283.40210938 0.40234375 283.48046875 C-24.33653021 284.51241727 -48.73849087 275.87942285 -70.1875 264.25 C-71.10015625 263.75757813 -72.0128125 263.26515625 -72.953125 262.7578125 C-92.15021703 251.79689221 -106.73819548 235.98769789 -118.1875 217.25 C-118.67863281 216.49589844 -119.16976562 215.74179687 -119.67578125 214.96484375 C-137.86223716 186.38612732 -144.275247 149.16781798 -137.59570312 115.99194336 C-133.01689518 95.64422963 -125.1047683 76.38509928 -113.1875 59.25 C-112.59630371 58.39631836 -112.59630371 58.39631836 -111.99316406 57.52539062 C-90.71926926 27.30618618 -59.11269491 8.58527965 -23.1875 1.25 C-15.46824826 -0.00954885 -7.79637633 0.00618211 0 0 Z " fill="#8F54A7" transform="translate(248.1875,102.75)"/>
<path d="M0 0 C4.95 0 9.9 0 15 0 C15 14.85 15 29.7 15 45 C17.31 42.36 19.62 39.72 22 37 C25.8125 34.5625 25.8125 34.5625 29 33 C29.99 32.505 29.99 32.505 31 32 C40.7034028 31.12399836 49.1838059 32.29507531 56.8125 38.625 C66.64837109 48.11392678 70.48558955 62.01094461 71.17364502 75.37191772 C71.22986917 79.12849441 71.22515749 82.87984581 71.1953125 86.63671875 C71.19157217 88.01105033 71.18873004 89.38538462 71.18673706 90.75971985 C71.17918072 94.3386093 71.15960332 97.91733072 71.1373291 101.49615479 C71.11669602 105.16342904 71.1076984 108.83073103 71.09765625 112.49804688 C71.07634791 119.66544926 71.04123342 126.83267947 71 134 C65.72 134 60.44 134 55 134 C54.99589111 132.15438477 54.99178223 130.30876953 54.98754883 128.40722656 C54.96804197 122.26431071 54.92556103 116.12187788 54.86790943 109.97920609 C54.83382355 106.25998343 54.80855852 102.54116349 54.80444336 98.82177734 C54.80012029 95.22278615 54.77133296 91.62470051 54.72656822 88.02599335 C54.70752695 86.00571863 54.71291138 83.98526022 54.71894836 81.96490479 C54.57826457 72.93791734 53.41385792 63.85592021 47.09846497 56.90802002 C42.66160858 52.94428427 39.39548663 51.57406048 33.4453125 51.66015625 C27.78099921 52.44736912 23.58045415 55.90730114 20.125 60.3125 C14.80497401 67.69729132 15.66164327 77.72609732 15.5859375 86.34375 C15.56719718 87.72238283 15.5476217 89.10100454 15.5272522 90.47961426 C15.47622694 94.08306274 15.43644425 97.68654829 15.39910889 101.29016113 C15.35888202 104.97738592 15.30787557 108.66446047 15.2578125 112.3515625 C15.16140441 119.56761239 15.07788717 126.78372208 15 134 C10.05 134 5.1 134 0 134 C0 89.78 0 45.56 0 0 Z " fill="#9056A7" transform="translate(249,175)"/>
<path d="M0 0 C11.3702089 3.90621693 19.916792 13.9897056 25.171875 24.45703125 C29.2239019 32.81433674 29.54002052 40.87147301 29.609375 50.01953125 C29.61960693 51.05996582 29.62983887 52.10040039 29.64038086 53.17236328 C29.46390759 68.84763207 24.48480948 80.92511461 13.734375 92.20703125 C6.17658429 99.53124785 -1.98388261 101.92272479 -12.31079102 101.88647461 C-22.60931711 101.60563575 -29.24291477 96.88530314 -36.57421875 89.88671875 C-47.38335558 78.23458165 -50.60149905 63.0558295 -50.41967773 47.61694336 C-49.81892342 32.45020745 -44.62919941 18.63096078 -33.453125 8.01953125 C-29.25727276 4.50739421 -24.92272463 2.36346705 -19.828125 0.45703125 C-14.50596901 -2.20404675 -5.72600235 -1.09932918 0 0 Z M-27.51171875 27.52734375 C-34.37188363 37.58349048 -35.46116628 49.35314756 -33.33203125 61.22265625 C-30.64576751 69.90368937 -25.82490105 76.8842152 -17.97265625 81.5625 C-13.19001822 83.55744373 -7.40666284 83.41950631 -2.578125 81.6171875 C5.68193121 76.82570958 10.84279026 69.91005689 13.515625 60.80859375 C15.64484909 49.93434215 14.82230188 39.97565067 9.421875 30.33203125 C3.54646896 22.62693842 3.54646896 22.62693842 -4.828125 18.45703125 C-14.54770505 17.39395218 -21.41141438 19.78145318 -27.51171875 27.52734375 Z " fill="#8F55A7" transform="translate(382.828125,208.54296875)"/>
<path d="M0 0 C4.38069256 2.77014382 8.0891018 5.74754814 11.578125 9.57421875 C9.96137819 13.00368168 8.00214823 16.13684927 5.953125 19.32421875 C5.00566406 20.80148438 5.00566406 20.80148438 4.0390625 22.30859375 C3.55695313 23.05625 3.07484375 23.80390625 2.578125 24.57421875 C2.02125 24.1875 1.464375 23.80078125 0.890625 23.40234375 C-1.52344569 21.75490362 -3.96890268 20.16303178 -6.421875 18.57421875 C-7.02128906 18.14882812 -7.62070313 17.7234375 -8.23828125 17.28515625 C-14.88855992 13.14918876 -22.91117321 13.83558866 -30.421875 14.57421875 C-33.65643872 15.3494872 -35.79916905 16.55462451 -38.421875 18.57421875 C-39.21851563 19.13753906 -40.01515625 19.70085937 -40.8359375 20.28125 C-49.57616064 27.18629033 -56.45217535 38.83358163 -58.25 49.984375 C-59.47012054 68.36937314 -58.31021791 85.47313089 -46.609375 100.57421875 C-41.40684448 106.0984111 -33.2418427 110.98791433 -25.66015625 111.91015625 C-16.53791726 112.03194849 -9.38756184 110.45725673 -2.484375 104.26171875 C-1.95972656 103.72933594 -1.43507813 103.19695312 -0.89453125 102.6484375 C-0.40855469 102.29394531 0.07742187 101.93945312 0.578125 101.57421875 C4.66101189 102.93518105 5.46498317 105.05375197 7.765625 108.63671875 C8.48105469 109.74144531 9.19648438 110.84617187 9.93359375 111.984375 C10.74763672 113.26634766 10.74763672 113.26634766 11.578125 114.57421875 C5.20529996 122.74450726 -3.06644368 129.36759125 -13.61962891 130.89160156 C-15.93814263 131.04774739 -18.2232309 131.09307717 -20.546875 131.07421875 C-21.37364746 131.06849854 -22.20041992 131.06277832 -23.05224609 131.05688477 C-34.92627448 130.71602004 -44.66697992 126.66106962 -53.421875 118.57421875 C-54.02257812 118.06375 -54.62328125 117.55328125 -55.2421875 117.02734375 C-66.02682842 107.25829682 -72.0467562 92.71243936 -74.421875 78.57421875 C-74.64528992 73.82655781 -74.60701999 69.07662233 -74.609375 64.32421875 C-74.62162109 63.03902344 -74.63386719 61.75382812 -74.64648438 60.4296875 C-74.65709385 53.53352806 -74.41466178 47.1954951 -72.421875 40.57421875 C-71.88820312 38.79724609 -71.88820312 38.79724609 -71.34375 36.984375 C-65.61031677 20.60586742 -55.62826103 5.30494292 -39.609375 -2.56640625 C-26.41269236 -7.75081729 -12.18740985 -7.17484612 0 0 Z " fill="#8F55A7" transform="translate(225.421875,179.42578125)"/>
<path d="M0 0 C0.11044961 6.73742646 -0.29867087 13.29980211 -1 20 C-1.70125 20.25652344 -2.4025 20.51304687 -3.125 20.77734375 C-11.22754614 24.04698533 -17.34042449 28.2916428 -21.12109375 36.40625 C-21.8853438 38.60026928 -22.49930974 40.73241104 -23 43 C-23.17051376 43.75520432 -23.34102753 44.51040863 -23.51670837 45.28849792 C-24.01439312 48.08075241 -24.15885262 50.69000995 -24.20532227 53.5246582 C-24.22526749 54.60540115 -24.24521271 55.6861441 -24.26576233 56.79963684 C-24.28247482 57.9550145 -24.29918732 59.11039215 -24.31640625 60.30078125 C-24.33718735 61.49229294 -24.35796844 62.68380463 -24.37937927 63.91142273 C-24.44468179 67.71172403 -24.50367018 71.51209352 -24.5625 75.3125 C-24.60570356 77.89128305 -24.64931844 80.47005924 -24.69335938 83.04882812 C-24.80034348 89.36581581 -24.90166541 95.68287199 -25 102 C-30.28 102 -35.56 102 -41 102 C-41 69 -41 36 -41 2 C-35.72 2 -30.44 2 -25 2 C-24.67 5.96 -24.34 9.92 -24 14 C-23.05640625 12.86111328 -23.05640625 12.86111328 -22.09375 11.69921875 C-15.59415656 4.15225107 -10.68695453 -0.80152159 0 0 Z " fill="#9057A8" transform="translate(500,207)"/>
<path d="M0 0 C5.28 0 10.56 0 16 0 C16 33 16 66 16 100 C10.72 100 5.44 100 0 100 C0 67 0 34 0 0 Z " fill="#9056A7" transform="translate(426,209)"/>
<path d="M0 0 C5.28 0 10.56 0 16 0 C16 6.93 16 13.86 16 21 C10.72 21 5.44 21 0 21 C0 14.07 0 7.14 0 0 Z " fill="#8F55A7" transform="translate(426,176)"/>
</svg>
